<svg xmlns="http://www.w3.org/2000/svg" viewBox="0 0 28.34 28.34"><rect width="27.15" height="27.15" x=".59" y=".59" fill="#fff" rx="2.36" ry="2.36"/><path fill="#0077b5" fill-rule="evenodd" d="M0 2.37C0 1.06 1.06 0 2.37 0h23.6c1.31 0 2.37 1.06 2.37 2.37v23.6c0 1.31-1.06 2.37-2.37 2.37H2.37C1.06 28.34 0 27.28 0 25.97V2.37Zm11.22 8.43h3.84v1.93c.55-1.11 1.97-2.11 4.1-2.11 4.08 0 5.05 2.21 5.05 6.26v7.5h-4.13V17.8c0-2.31-.55-3.61-1.96-3.61-1.95 0-2.76 1.4-2.76 3.61v6.58h-4.13V10.8ZM4.13 24.2h4.13V10.62H4.13V24.2Zm4.72-18c0 1.47-1.19 2.66-2.66 2.66S3.53 7.67 3.53 6.2s1.19-2.66 2.66-2.66S8.85 4.73 8.85 6.2Z"/></svg>