<svg xmlns="http://www.w3.org/2000/svg" viewBox="0 0 28.35 24.29"><path fill="#9c0000" fill-rule="evenodd" d="M28.31 9.5v14.36c0 .24-.2.42-.42.42H.44c-.24 0-.42-.2-.42-.42V9.5L13.44.2c.41-.28 1.11-.26 1.53.04l13.38 9.27h-.04Z"/><path fill="#e8e8d0" fill-rule="evenodd" d="M2.36 2.91h23.59v15.44H2.36V2.91Z"/><path fill="#37474f" fill-rule="evenodd" d="M15.8 14.41c-.55.65-1.33 1.09-2.19 1.09h-.18c-.79-.06-1.46-.48-1.92-1.12-.44-.61-.66-1.35-.7-2.08v-.28c0-.11 0-.22.02-.33.07-.94.41-1.88 1.01-2.6.57-.66 1.35-1.14 2.25-1.14h.18c.68.06 1.29.39 1.73.88l.06-.88 1.07.06-.35 5.7c-.02.29.09.55.33.72.13.09.28.11.42.11.87-.04 1.57-.77 1.9-1.53.37-.81.48-1.92.26-2.76v-.04c-.26-.94-.76-1.81-1.46-2.51-1.05-1.05-2.47-1.64-3.98-1.64s-2.91.59-3.98 1.64c-1.05 1.05-1.64 2.47-1.64 3.98s.59 2.91 1.64 3.98a5.604 5.604 0 0 0 3.98 1.64c1.2 0 2.36-.37 3.32-1.09l.42-.31v1.33l-.13.07c-1.09.7-2.34 1.07-3.63 1.07-1.79 0-3.46-.7-4.74-1.95-1.25-1.25-1.95-2.95-1.95-4.74s.7-3.46 1.95-4.74c1.25-1.25 2.95-1.95 4.74-1.95s3.46.7 4.74 1.95c.83.83 1.42 1.86 1.73 2.99v.02c.24 1.09.17 2.4-.29 3.41-.52 1.14-1.55 2.17-2.88 2.23-.39.02-.76-.07-1.07-.29-.33-.22-.53-.55-.66-.9v.04Zm-3.93-2.31c.02.57.17 1.16.5 1.62.28.37.66.65 1.14.68h.09c.57 0 1.07-.33 1.42-.76.46-.55.72-1.27.77-1.99v-.35c-.02-.57-.17-1.16-.5-1.62-.28-.37-.66-.65-1.14-.68h-.09c-.57 0-1.07.33-1.42.76-.46.55-.72 1.27-.77 1.99v.35Z"/><path fill="#bf0000" fill-rule="evenodd" d="m.07 24.08 11.21-7.67L0 9.5v14.34c0 .09.02.17.07.22v.02Zm28.24-.22V9.5h-.02l-11.35 6.97 11.3 7.61c.04-.07.07-.15.07-.22Z"/><path fill="#d50000" fill-rule="evenodd" d="M28.25 24.08c-.07.13-.22.2-.37.2H.44c-.15 0-.29-.07-.37-.2l13.34-9.27c.41-.28 1.09-.26 1.53.04l13.31 9.23Z"/></svg>