<svg xmlns="http://www.w3.org/2000/svg" xmlns:xlink="http://www.w3.org/1999/xlink" viewBox="0 0 28.34 28.35"><defs><radialGradient id="a" cx="-2.54" cy="163.05" r="52.29" fx="-2.54" fy="163.05" gradientTransform="translate(0 -133.46)" gradientUnits="userSpaceOnUse"><stop offset="0" stop-color="#f9ed41"/><stop offset=".24" stop-color="#ff833d"/><stop offset=".4" stop-color="#ee5568"/><stop offset=".49" stop-color="#e7407b"/><stop offset="1" stop-color="#0028ff"/></radialGradient><radialGradient xlink:href="#a" id="b" cx="-2.54" r="52.29" fx="-2.54"/><radialGradient xlink:href="#a" id="c" cy="163.05" r="52.28" fy="163.05"/></defs><path fill="url(#a)" d="M19.67 28.35H8.68c-4.79 0-8.68-3.9-8.68-8.68V8.68C0 3.89 3.89 0 8.67 0h10.99c4.78 0 8.68 3.89 8.68 8.68v10.99c0 4.78-3.89 8.68-8.68 8.68Zm-11-26.23c-3.61 0-6.56 2.94-6.56 6.56v10.99c0 3.61 2.94 6.56 6.56 6.56h10.99c3.61 0 6.56-2.94 6.56-6.56V8.68c0-3.61-2.94-6.56-6.56-6.56H8.67Z"/><path fill="url(#b)" d="M14.17 21.34c-3.95 0-7.17-3.22-7.17-7.17S10.22 7 14.17 7s7.17 3.22 7.17 7.17-3.22 7.17-7.17 7.17Zm0-12.17c-2.76 0-5 2.24-5 5s2.24 5 5 5 5-2.24 5-5-2.24-5-5-5Z"/><path fill="url(#c)" d="M23.99 6.22a1.865 1.865 0 0 1-3.73.01c0-1.03.84-1.87 1.87-1.87 1.03 0 1.86.84 1.86 1.86Z"/></svg>