<svg xmlns="http://www.w3.org/2000/svg" viewBox="0 0 28.35 23.03"><path fill="#1d9bf0" d="M25.44 5.73c.02.25.02.5.02.75 0 7.68-5.85 16.55-16.55 16.55-3.16 0-6.25-.91-8.91-2.61.46.06.92.08 1.38.08 2.62 0 5.16-.88 7.22-2.49a5.819 5.819 0 0 1-5.43-4.04c.87.17 1.77.13 2.63-.1a5.823 5.823 0 0 1-4.67-5.7V8.1c.81.45 1.71.7 2.64.73a5.837 5.837 0 0 1-1.8-7.77C4.92 4.69 9.28 6.9 13.96 7.14c-.47-2.02.17-4.14 1.68-5.56a5.827 5.827 0 0 1 8.23.25c1.3-.26 2.55-.73 3.69-1.41A5.805 5.805 0 0 1 25 3.64c1.15-.14 2.28-.44 3.34-.92-.78 1.17-1.76 2.19-2.9 3.01Z"/></svg>